# xmcd
#
# Track frame offsets: 
#        150
#        11627
#        30039
#        44015
#        53977
#        71691
#        82846
#        98545
#        111407
#        125227
#        140991
#        155981
#        171180
#        186395
#        194244
#        208204
#        218574
#        229998
#        241400
#        252040
#        261967
#        280956
#        296561
#
# Disc length: 4112 seconds
#
# Revision: 2
# Processed by: cddbd v1.5.2PL0 Copyright (c) Steve Scherf et al.
# Submitted via: ExactAudioCopy v1.5
#
DISCID=6d100e17
DTITLE=Greenhorns - Hity z let 1969 - 1976
DYEAR=1900
DGENRE=Country
TTITLE0=Blues Folsomské věznice
TTITLE1=Dívka s vlasem medovým
TTITLE2=A slunce pálí jen
TTITLE3=Honzův song
TTITLE4=Co se bude dít
TTITLE5=Casey Jones
TTITLE6=El Paso
TTITLE7=Blues hvízdavého vlaku
TTITLE8=Blízko Little Big Hornu
TTITLE9=Poslední sklenka
TTITLE10=Odvolejte kněze
TTITLE11=Divnej smích
TTITLE12=Žlutá kytka
TTITLE13=Vlak v 0,5
TTITLE14=Na Vánoce ráno
TTITLE15=Hej, Joe
TTITLE16=Šest bílých koní
TTITLE17=Neváhej
TTITLE18=Když náš táta hrál
TTITLE19=Šest dní na silnici
TTITLE20=Oranžový expres
TTITLE21=Červená řeka
TTITLE22=Hromskej den
EXTD=
EXTT0=
EXTT1=
EXTT2=
EXTT3=
EXTT4=
EXTT5=
EXTT6=
EXTT7=
EXTT8=
EXTT9=
EXTT10=
EXTT11=
EXTT12=
EXTT13=
EXTT14=
EXTT15=
EXTT16=
EXTT17=
EXTT18=
EXTT19=
EXTT20=
EXTT21=
EXTT22=
PLAYORDER=
